$MeshFormat
4.1 0 8
$EndMeshFormat
$PhysicalNames
6
1 1 "ymin"
1 2 "xmax"
1 3 "ymax"
1 4 "xmin"
1 5 "wall"
2 6 "Domain"
$EndPhysicalNames
$Entities
9 8 1 0
1 -5 -2.5 0 0 
2 5 -2.5 0 0 
3 5 2.5 0 0 
4 -5 2.5 0 0 
5 0 0 0 0 
6 0.5 0 0 0 
7 0 0.5 0 0 
8 -0.5 0 0 0 
9 0 -0.5 0 0 
1 -5 -2.5 0 5 -2.5 0 1 1 2 1 -2 
2 5 -2.5 0 5 2.5 0 1 2 2 2 -3 
3 -5 2.5 0 5 2.5 0 1 3 2 3 -4 
4 -5 -2.5 0 -5 2.5 0 1 4 2 4 -1 
5 2.775557561562891e-17 0 0 0.5 0.5 0 1 5 2 6 -7 
6 -0.5 2.775557561562891e-17 0 0 0.5 0 1 5 2 7 -8 
7 -0.5 -0.5 0 -2.775557561562891e-17 0 0 1 5 2 8 -9 
8 0 -0.5 0 0.5 -2.775557561562891e-17 0 1 5 2 9 -6 
1 -5 -2.5 0 5 2.5 0 1 6 8 1 2 3 4 -8 -7 -6 -5 
$EndEntities
$Nodes
17 428 1 428
0 1 0 1
1
-5 -2.5 0
0 2 0 1
2
5 -2.5 0
0 3 0 1
3
5 2.5 0
0 4 0 1
4
-5 2.5 0
0 6 0 1
5
0.5 0 0
0 7 0 1
6
0 0.5 0
0 8 0 1
7
-0.5 0 0
0 9 0 1
8
0 -0.5 0
1 1 0 19
9
10
11
12
13
14
15
16
17
18
19
20
21
22
23
24
25
26
27
-4.499999999999384 -2.5 0
-3.999999999998766 -2.5 0
-3.49999999999926 -2.5 0
-3.000000000000863 -2.5 0
-2.500000000002466 -2.5 0
-2.00000000000407 -2.5 0
-1.500000000005672 -2.5 0
-1.00000000000724 -2.5 0
-0.5000000000067626 -2.5 0
-6.145306485905166e-12 -2.5 0
0.499999999994472 -2.5 0
0.9999999999950866 -2.5 0
1.499999999995705 -2.5 0
1.999999999996321 -2.5 0
2.499999999996938 -2.5 0
2.999999999997555 -2.5 0
3.499999999998165 -2.5 0
3.999999999998776 -2.5 0
4.499999999999389 -2.5 0
1 2 0 9
28
29
30
31
32
33
34
35
36
5 -1.999999999999383 0
5 -1.500000000000432 0
5 -1.000000000002035 0
5 -0.5000000000036202 0
5 -3.072653242952583e-12 0
5 0.4999999999975433 0
5 0.9999999999981606 0
5 1.499999999998777 0
5 1.999999999999388 0
1 3 0 19
37
38
39
40
41
42
43
44
45
46
47
48
49
50
51
52
53
54
55
4.499999999999384 2.5 0
3.999999999998766 2.5 0
3.49999999999926 2.5 0
3.000000000000863 2.5 0
2.500000000002466 2.5 0
2.00000000000407 2.5 0
1.500000000005672 2.5 0
1.00000000000724 2.5 0
0.5000000000067626 2.5 0
6.145306485905166e-12 2.5 0
-0.499999999994472 2.5 0
-0.9999999999950866 2.5 0
-1.499999999995705 2.5 0
-1.999999999996321 2.5 0
-2.499999999996938 2.5 0
-2.999999999997555 2.5 0
-3.499999999998165 2.5 0
-3.999999999998776 2.5 0
-4.499999999999389 2.5 0
1 4 0 9
56
57
58
59
60
61
62
63
64
-5 1.999999999999383 0
-5 1.500000000000432 0
-5 1.000000000002035 0
-5 0.5000000000036202 0
-5 3.072653242952583e-12 0
-5 -0.4999999999975433 0
-5 -0.9999999999981606 0
-5 -1.499999999998777 0
-5 -1.999999999999388 0
1 5 0 3
65
66
67
0.4619397660413571 0.1913417166998779 0
0.3535533897883815 0.3535533913981661 0
0.1913417156147864 0.4619397664908166 0
1 6 0 3
68
69
70
-0.1913417166998779 0.4619397660413571 0
-0.3535533913981661 0.3535533897883815 0
-0.4619397664908166 0.1913417156147864 0
1 7 0 3
71
72
73
-0.4619397660413571 -0.1913417166998779 0
-0.3535533897883815 -0.3535533913981661 0
-0.1913417156147864 -0.4619397664908166 0
1 8 0 3
74
75
76
0.1913417166998779 -0.4619397660413571 0
0.3535533913981661 -0.3535533897883815 0
0.4619397664908166 -0.1913417156147864 0
2 1 0 352
77
78
79
80
81
82
83
84
85
86
87
88
89
90
91
92
93
94
95
96
97
98
99
100
101
102
103
104
105
106
107
108
109
110
111
112
113
114
115
116
117
118
119
120
121
122
123
124
125
126
127
128
129
130
131
132
133
134
135
136
137
138
139
140
141
142
143
144
145
146
147
148
149
150
151
152
153
154
155
156
157
158
159
160
161
162
163
164
165
166
167
168
169
170
171
172
173
174
175
176
177
178
179
180
181
182
183
184
185
186
187
188
189
190
191
192
193
194
195
196
197
198
199
200
201
202
203
204
205
206
207
208
209
210
211
212
213
214
215
216
217
218
219
220
221
222
223
224
225
226
227
228
229
230
231
232
233
234
235
236
237
238
239
240
241
242
243
244
245
246
247
248
249
250
251
252
253
254
255
256
257
258
259
260
261
262
263
264
265
266
267
268
269
270
271
272
273
274
275
276
277
278
279
280
281
282
283
284
285
286
287
288
289
290
291
292
293
294
295
296
297
298
299
300
301
302
303
304
305
306
307
308
309
310
311
312
313
314
315
316
317
318
319
320
321
322
323
324
325
326
327
328
329
330
331
332
333
334
335
336
337
338
339
340
341
342
343
344
345
346
347
348
349
350
351
352
353
354
355
356
357
358
359
360
361
362
363
364
365
366
367
368
369
370
371
372
373
374
375
376
377
378
379
380
381
382
383
384
385
386
387
388
389
390
391
392
393
394
395
396
397
398
399
400
401
402
403
404
405
406
407
408
409
410
411
412
413
414
415
416
417
418
419
420
421
422
423
424
425
426
427
428
0.6643781146448402 -0.09536360287955804 0
-0.6643781146448402 0.09536360287955804 0
4.581901425515111 0.2517761252309473 0
-4.581901425515111 -0.2517761252309473 0
-0.5669748229137528 -0.3528783590748392 0
0.5630157243900691 0.3373415764241117 0
-2.264366757562022 -2.076425725569548 0
2.264366757562022 2.076425725569548 0
2.255666972544074 -2.108418280512657 0
-2.255666972544074 2.108418280512657 0
0.3874914627642703 -0.5487211208046724 0
-0.3877200117636063 0.5487822185322332 0
0.1092301223898375 0.6472386011575081 0
-0.1047764357200754 -0.6530858531916472 0
-1.305450952949345 -2.048127379990361 0
1.305415862209913 2.048106790879026 0
1.240145494334082 -2.058218737350357 0
-1.244312626154265 2.090993635982333 0
3.233427273038663 -2.068592658260891 0
-3.233427273038663 2.068592658260891 0
-3.280882822624146 -2.043678348311762 0
3.280882822624146 2.043678348311762 0
4.601345959373179 -0.7224690027249233 0
-4.601345959373179 0.7224690027249233 0
0.2799967748531972 -2.133603919502018 0
-0.2630714969940768 2.090454370752249 0
4.572384460800546 1.244071137324953 0
-4.572384460800546 -1.244071137324953 0
4.618127788909527 -1.751986195984221 0
-4.618127788909527 1.751986195984221 0
0.6466766699972832 0.128631987734792 0
0.8398508492733698 0.002462070710023995 0
0.852386578527992 -0.2199263366004391 0
1.053544367130658 -0.09503288324754891 0
1.057690921294967 -0.3538955019991035 0
1.284872779415998 -0.2086322471898891 0
1.26408625374694 0.06173186501039796 0
1.52068811600169 -0.05270536527087265 0
1.492375985102237 0.238704970934781 0
1.772918226735835 0.1178800782249019 0
1.794965353137042 -0.194510438872974 0
2.070086131668447 -0.01408249433974653 0
2.072456620450106 -0.3652919035099113 0
2.38068193984087 -0.1610446126618286 0
2.35382190910944 0.1965438027464679 0
2.690039727905135 0.04362209564262714 0
2.718247517390219 -0.3351046030163302 0
2.655505107190134 0.4240717515292429 0
2.316705807714131 0.5537580624309191 0
1.296785975049026 -0.4783898414539811 0
1.05641996566369 -0.6317953068145936 0
1.315743361297591 -0.7777509274686191 0
3.047256972395491 -0.120654005250388 0
3.069753287123581 -0.5179071072992195 0
1.053891132245889 -0.9422473744076778 0
2.682681955183458 -0.6867875821479169 0
2.610210729421151 0.8118826422212377 0
2.980783977177253 0.6561524807925696 0
1.186803385804405 0.3492444050580136 0
1.455551138595809 0.5396445544686023 0
1.156196138234046 0.6710555945120507 0
1.421655877695435 0.8568913014805514 0
1.107367280017975 0.9926633048294532 0
2.231267693276787 0.9390649184357721 0
1.333129599974141 -1.094169272460788 0
3.415094499903576 -0.2908036183028716 0
3.445217346779002 -0.7767621505992698 0
1.390953513882761 1.193848620223792 0
1.081487379498598 -1.268766382596738 0
0.7770616106033118 -1.106860654556838 0
2.56763015078337 1.211775934498578 0
1.652629544837892 -0.8767459005974769 0
1.6549997750612 -1.258349623318036 0
1.069272753057056 1.32535021253033 0
0.7903145067992186 1.120176268847352 0
0.7460082838293227 1.454827717068017 0
0.4487857154925475 1.211877312783042 0
0.4021999905225392 1.572374885138887 0
0.1498303629932755 1.358890486682343 0
1.966279752532653 -1.073710664240999 0
0.7932559080794827 -1.451929282098933 0
0.4808461251361993 -1.244907427153448 0
-0.6466766699972832 -0.128631987734792 0
-0.8398508492733698 -0.002462070710023995 0
-0.8523811993619763 0.2199290850734567 0
-1.053543470602989 0.09503334132638516 0
-1.057684496180004 0.35389878489743 0
-1.284871559142226 0.2086328706860829 0
-1.2640859009467 -0.06173168474789295 0
-1.520687853822688 0.05270549923065579 0
-1.492375882605696 -0.2387049185643997 0
-1.772918165956578 -0.1178800471698745 0
-1.794965299310665 0.1945104663754424 0
-2.070086112567509 0.01408250409932915 0
-2.072456608295553 0.365291909720253 0
-2.38068193984087 0.1610446126618286 0
-2.353821905925951 -0.1965438011198708 0
-2.690039727711774 -0.04362209554382994 0
-2.718247517357992 0.3351046030327964 0
-2.655505106788128 -0.4240717513238388 0
-2.316705807116548 -0.5537580621255855 0
-1.296785643356123 0.4783900109317387 0
-1.056481103853557 0.6317976897643689 0
-1.315753495713752 0.7777513528732078 0
-3.047256972357893 0.1206540052695986 0
-3.069753287111944 0.5179071073051658 0
-1.054029347166361 0.9422491891792659 0
-2.682681955176147 0.6867875821516523 0
-2.610210729421151 -0.8118826422212377 0
-2.980783977177253 -0.6561524807925696 0
-1.186803320762009 -0.3492443718247441 0
-1.455551110672653 -0.5396445402013272 0
-1.171224888487755 -0.6582474982441014 0
-1.424160664750527 -0.8547566163913474 0
-1.123460825952791 -0.9848982746424656 0
-2.231267693191418 -0.939064918392153 0
-1.336232607446945 1.099426311868144 0
-3.41509449989537 0.2908036183070644 0
-3.445217346776168 0.776762150600718 0
-1.394053236047745 -1.192198667677761 0
-1.048000033560047 1.272481974251712 0
-0.771348625949617 1.107998061626775 0
-2.56763015078337 -1.211775934498578 0
-1.653074279393459 0.8774969669991833 0
-1.651511142721768 1.266524861816359 0
-1.071859638013893 -1.324136088345858 0
-0.8335573123276632 -1.111898918352977 0
-0.7535563738148793 -1.453511842483447 0
-0.4759907185081032 -1.233431785046205 0
-1.966020917687086 1.074469703773314 0
-0.4317013681820652 -1.57207198262753 0
-0.7513937835260311 1.439115642950822 0
-0.128631987734792 0.6466766699972832 0
-0.2949884355392212 0.7855754968812541 0
0.128631987734792 -0.6466766699972832 0
0.03528484724176864 -0.838373969944175 0
0.3192146411938926 0.6172795961775284 0
-0.3132431823878949 -0.6151027813689522 0
-0.01816371991454698 0.8303854983233596 0
-0.204449339406114 1.026591913849038 0
3.386779075855838 0.1128445556514718 0
-3.386779075848204 -0.1128445556475713 0
3.771278955747642 -0.05924346917880101 0
3.736698414771121 0.3735738510590197 0
-3.771278955747642 0.05924346917880101 0
-3.736698414771121 -0.3735738510590197 0
-0.5256959306584772 0.7192912360352912 0
0.306368619248897 -0.7819629534268018 0
0.5275397476826158 -0.7182019621652108 0
-4.219408578565261 -2.048553426646285 0
4.219408578565261 2.048553426646285 0
-0.1479183686886283 -1.358593195179627 0
-0.7730136839142933 -0.3201927527749048 0
-0.6941587670707281 -0.6021918625435545 0
0.7730136839142933 0.3201927527749048 0
0.7006692421803522 0.5384518791318018 0
0.5171074085968057 -0.3784523404542408 0
-0.5171515198753031 0.3784317268246473 0
-2.176953644688612 -1.34845349434319 0
2.176953644695871 1.348453494346899 0
0.6772486807106639 1.757291604063139 0
-0.69399034224113 -1.784121075278927 0
2.013820409864505 -1.453063249595169 0
2.336154302412068 -1.228200897324863 0
-2.013195832000338 1.454552295933609 0
-2.336049134232338 1.22846852659519 0
1.707184128827617 0.7228866675631749 0
-1.70760158868294 -0.7225308843370951 0
0.3965864823102594 1.96001836369041 0
-0.3440284264313034 -1.954617619960824 0
0.5331422872558871 0.9271654936505009 0
-0.2268871145138455 -0.8354740143168735 0
-0.4722588595031192 -0.7545621025568863 0
1.615189574332232 -1.672806789549023 0
-1.692525333212886 1.63294425778031 0
-1.361585414125118 -1.569681145301669 0
1.360631535807588 1.570154370511187 0
0.2171352542405309 -1.029595724731602 0
-2.516037732581582 -1.658075767034503 0
-2.927274321650423 -1.401909495884143 0
2.516037732582619 1.658075767035033 0
2.927274321650597 1.401909495884231 0
0.4625386541236099 -1.570791834385205 0
0.827287963918397 -1.805259538013964 0
-0.7603657022998302 2.071412368982585 0
0.2827841273736368 0.8250093382776373 0
1.746007780830486 1.386797979709872 0
1.647841212694934 1.751682779658621 0
-1.746586866612666 -1.386494668601407 0
-1.648154823662763 -1.751531590217291 0
1.79893713343428 -0.5380681307950806 0
-1.79893713343428 0.5380681307950806 0
-1.032912272572288 1.687177136579928 0
2.3108530274034 -0.8704238269397905 0
-2.310809693709042 0.8705460494167403 0
-2.751017123362064 -2.092577339431262 0
2.751017123362188 2.092577339431325 0
-0.4724150240382813 1.244639638223683 0
-0.4391184654921936 1.552269199166481 0
2.735977673403381 -2.079043589679682 0
2.981371679163118 -1.663384656699969 0
3.45798965728203 -1.639907808767648 0
3.229642918767138 -1.245894885979369 0
3.683458551914685 -1.22033572841642 0
3.917370099129236 -0.81179698877308 0
4.105835037820421 -1.227279616050014 0
3.720506847375774 -2.056978171606509 0
2.441055406053128 -1.659166149115822 0
-2.735977673403381 2.079043589679682 0
-2.981371679163118 1.663384656699969 0
-3.45798965728203 1.639907808767648 0
-3.229642918766666 1.24589488597961 0
-3.683458551914134 1.220335728416701 0
-3.917370099129236 0.81179698877308 0
-4.105835037820329 1.227279616050061 0
-3.720506847375774 2.056978171606509 0
-2.440951156618285 1.659417102774218 0
0.8200284455405484 0.7864985269259284 0
-0.9096290249459127 -0.7924545579205253 0
4.59418418468295 -0.2360085727784445 0
-4.59418418468295 0.2360085727784445 0
4.57968188908205 0.7495877431518745 0
4.157302741506251 1.005323777313848 0
4.163367724900892 1.497490544467334 0
3.667700870865408 1.230040963516878 0
3.723709961759991 1.719839122440763 0
-4.57968188908205 -0.7495877431518745 0
-4.157302741506251 -1.005323777313848 0
-4.163367724900892 -1.497490544467334 0
-3.667700870865408 -1.230040963516878 0
-3.723709961759991 -1.719839122440763 0
2.768681984147392 -1.2852301751153 0
-2.768647081211552 1.285316605603461 0
1.769659290830136 -2.107935831113684 0
1.225964374485422 -1.649697159251673 0
-1.720426604245917 2.054821951424066 0
0.5209210470904784 -0.9433791373561182 0
4.180102635642629 0.5016635079647314 0
-4.180102635642629 -0.5016635079647314 0
-0.5143717163566378 0.9438084214990022 0
0.1345313103942757 1.069734973073101 0
0.9408259961721627 0.4969352832440969 0
-0.9488667700097829 -0.5057616593863112 0
2.041631912450473 0.3134060121702207 0
-2.041631898506929 -0.3134060050457973 0
0.766748047852481 -0.7679962004193799 0
0.8422601222981958 -0.4660896148227243 0
4.235407802130891 -2.01786295841687 0
-4.235407802130891 2.01786295841687 0
-0.7647682158028688 0.7683492376347592 0
-0.8419517442664326 0.4661156245563547 0
3.017542753478807 0.2710941379125417 0
-3.017542753372041 -0.2710941378579895 0
1.020659734908171 0.1341470013933172 0
-1.020659578435516 -0.1341469214439588 0
4.598189226746976 1.73734828410865 0
-4.598189226746976 -1.73734828410865 0
1.745158312330271 0.4234678296288412 0
-1.745227854782409 -0.4234085149549767 0
0.1662578752302494 -1.328435158935664 0
0.08501788312182887 -1.724675052862784 0
4.548921085460852 -1.237569342750304 0
-4.548921085460839 1.237569342750311 0
3.911146841472603 -1.620695272291705 0
-3.911146841472495 1.62069527229176 0
4.194043533184156 0.02390334245877237 0
4.163166312219845 -0.4493074297489698 0
-4.194043533184156 -0.02390334245877237 0
-4.163166312219845 0.4493074297489698 0
2.935497147672312 1.030462497219575 0
3.319992338754564 0.9018857559268073 0
-2.935497147672283 -1.03046249721956 0
-3.319992338754564 -0.9018857559268073 0
-0.1469161266651849 1.318792603738911 0
-0.03879667730180688 1.740324727710144 0
-0.1179775169231542 -1.092156683998043 0
-3.298940937754725 -1.568399818760865 0
-3.741463618176161 -0.7937336010009888 0
3.298940937754753 1.568399818760879 0
3.741463618176161 0.7937336010009888 0
2.379538120265071 -0.5217891723501868 0
-2.379534434390203 0.5217995659477629 0
1.531579246881508 -0.3373404101626163 0
-1.531579088040348 0.3373404913221574 0
-1.345211669845447 1.432365993036031 0
3.363876696368957 0.5182140637238998 0
-3.363876696349891 -0.5182140637141577 0
1.006670933091147 1.716434968360293 0
-1.011372253546536 -1.720442380573224 0
1.693345631379185 1.032555120465276 0
-1.694131471243183 -1.032026104754588 0
3.74242544275586 -0.4775827313205985 0
-3.742425442753652 0.4775827313217266 0
-3.744800272589485 -2.162414179479762 0
3.744800272589485 2.162414179479762 0
2.958671531661657 -0.9218738256767184 0
-2.958665714501974 0.9218882307599736 0
0.5379374361808842 0.6883820914383558 0
-1.779903546812609 -2.082608582396888 0
1.779845429861398 2.082630349118554 0
0.7308635220923466 -2.163602509288728 0
0.833499799687333 2.098185905149645 0
-0.8628792864588324 -2.127842125128804 0
1.523768520558912 -0.6045284554915129 0
-1.527124505890508 0.6066547449012375 0
2.001288482269658 0.6082846944113667 0
-2.001288482269658 -0.6082846944113667 0
-0.6941546497291119 1.730592088433154 0
-0.4997121680573801 -0.5465880842636536 0
2.006953703778402 -1.80817117927007 0
-2.006953703778402 1.80817117927007 0
-2.022000561986709 -1.717264971360471 0
2.021842093037888 1.717344349239754 0
1.959856343292036 1.115868854781442 0
-1.960129328402745 -1.115702389408145 0
1.999813265547436 -0.7558445771252331 0
-1.999819290293471 0.7559158463975366 0
-0.3975321138225199 -0.9632360192827929 0
1.372935410085734 -1.389175639944935 0
-1.388920527730048 1.76925079823555 0
4.633974596215745 -2.133974596215743 0
-4.633974596215745 2.133974596215743 0
-4.633974596215158 -2.13397459621516 0
4.633974596215158 2.13397459621516 0
2.59559231382096 -1.004262630434723 0
-2.59556528210997 1.004332728623641 0
-2.964017928676546 -1.770880769465395 0
2.964017928676741 1.770880769465495 0
-0.6488140546872084 -0.9070367227253853 0
0.4442886915580609 0.49949138351013 0
0.09234842305510546 2.163658638144228 0
-0.07658222421127224 -2.167110097644861 0
0.6249026860519187 -0.5348750408851152 0
-0.624982916002064 0.5346696477503997 0
0.3507098082044164 1.010212064802962 0
4.283887711158859 -1.571078677098623 0
-4.283887711158816 1.571078677098644 0
0.6775978634986206 -0.3014636591863008 0
-0.6775817566985241 0.301446886349765 0
4.258511067606096 -0.8958868353139603 0
-4.258511067606089 0.8958868353139642 0
1.928050887371568 0.8805151110794013 0
-1.928261785192234 -0.8803649304574463 0
0.4771409596218759 -1.87958657081054 0
-0.9583709348780012 -0.312238913010038 0
0.9537026389066305 0.304949565590985 0
3.229881123339526 1.226539706261674 0
-3.22988112333948 -1.226539706261651 0
-0.4391013983634039 1.837010551008923 0
-0.209657570045042 -1.652489462657691 0
0.8169875109583598 0.1651976061784848 0
-0.817230541961 -0.1655770974045205 0
$EndNodes
$Elements
9 856 1 856
1 1 1 20
1 1 9 
2 9 10 
3 10 11 
4 11 12 
5 12 13 
6 13 14 
7 14 15 
8 15 16 
9 16 17 
10 17 18 
11 18 19 
12 19 20 
13 20 21 
14 21 22 
15 22 23 
16 23 24 
17 24 25 
18 25 26 
19 26 27 
20 27 2 
1 2 1 10
21 2 28 
22 28 29 
23 29 30 
24 30 31 
25 31 32 
26 32 33 
27 33 34 
28 34 35 
29 35 36 
30 36 3 
1 3 1 20
31 3 37 
32 37 38 
33 38 39 
34 39 40 
35 40 41 
36 41 42 
37 42 43 
38 43 44 
39 44 45 
40 45 46 
41 46 47 
42 47 48 
43 48 49 
44 49 50 
45 50 51 
46 51 52 
47 52 53 
48 53 54 
49 54 55 
50 55 4 
1 4 1 10
51 4 56 
52 56 57 
53 57 58 
54 58 59 
55 59 60 
56 60 61 
57 61 62 
58 62 63 
59 63 64 
60 64 1 
1 5 1 4
61 5 65 
62 65 66 
63 66 67 
64 67 6 
1 6 1 4
65 6 68 
66 68 69 
67 69 70 
68 70 7 
1 7 1 4
69 7 71 
70 71 72 
71 72 73 
72 73 8 
1 8 1 4
73 8 74 
74 74 75 
75 75 76 
76 76 5 
2 1 2 780
77 255 83 388 
78 257 84 389 
79 45 245 378 
80 91 266 375 
81 92 264 376 
82 17 246 379 
83 230 249 385 
84 250 93 310 
85 145 157 311 
86 157 260 311 
87 137 294 318 
88 260 93 311 
89 249 230 405 
90 15 91 375 
91 43 92 376 
92 143 279 280 
93 195 288 289 
94 261 94 269 
95 305 226 307 
96 300 227 302 
97 93 250 311 
98 216 317 350 
99 205 352 394 
100 240 239 284 
101 242 241 293 
102 261 269 384 
103 275 351 425 
104 94 312 396 
105 314 220 342 
106 315 222 344 
107 284 239 386 
108 293 241 387 
109 137 139 294 
110 307 97 353 
111 302 98 355 
112 357 119 392 
113 358 171 393 
114 211 212 224 
115 245 237 378 
116 246 238 379 
117 312 251 396 
118 220 219 342 
119 222 221 344 
120 102 261 425 
121 210 209 215 
122 93 260 377 
123 154 245 351 
124 235 255 388 
125 236 257 389 
126 91 252 266 
127 92 253 264 
128 351 245 407 
129 279 143 372 
130 288 195 373 
131 205 394 405 
132 225 313 322 
133 102 351 407 
134 253 92 364 
135 252 91 365 
136 230 295 405 
137 223 316 326 
138 351 102 425 
139 246 337 426 
140 307 226 370 
141 302 227 371 
142 153 317 411 
143 224 212 254 
144 205 228 352 
145 143 280 281 
146 195 289 290 
147 102 47 261 
148 93 21 310 
149 94 49 312 
150 313 146 322 
151 294 232 318 
152 353 97 403 
153 355 98 404 
154 210 215 216 
155 245 45 407 
156 73 72 214 
157 203 205 405 
158 316 198 326 
159 246 17 408 
160 270 357 392 
161 271 358 393 
162 83 375 388 
163 84 376 389 
164 337 246 408 
165 155 154 351 
166 216 215 317 
167 83 255 272 
168 84 257 273 
169 254 158 313 
170 317 155 350 
171 308 372 401 
172 309 373 402 
173 107 77 108 
174 159 78 160 
175 342 219 343 
176 344 221 345 
177 372 132 401 
178 373 184 402 
179 153 155 317 
180 151 153 247 
181 214 72 385 
182 5 77 107 
183 7 78 159 
184 97 307 370 
185 98 302 371 
186 226 305 333 
187 227 300 332 
188 240 284 308 
189 242 293 309 
190 275 350 351 
191 343 219 368 
192 345 221 369 
193 67 66 406 
194 336 254 352 
195 262 213 374 
196 216 274 316 
197 139 151 294 
198 82 65 107 
199 81 71 159 
200 314 299 356 
201 315 304 354 
202 111 109 323 
203 163 161 327 
204 75 87 233 
205 69 88 234 
206 276 95 277 
207 285 96 286 
208 81 159 229 
209 82 107 231 
210 48 94 261 
211 220 314 356 
212 222 315 354 
213 347 301 423 
214 349 306 424 
215 191 203 295 
216 259 336 337 
217 284 277 308 
218 293 286 309 
219 87 74 211 
220 364 92 378 
221 365 91 379 
222 25 26 283 
223 53 54 292 
224 8 90 211 
225 88 68 209 
226 276 277 284 
227 285 286 293 
228 6 89 209 
229 24 95 276 
230 52 96 285 
231 18 19 101 
232 46 47 102 
233 259 158 336 
234 233 87 409 
235 20 21 93 
236 48 49 94 
237 97 12 272 
238 98 40 273 
239 234 88 410 
240 127 111 323 
241 179 163 327 
242 301 347 356 
243 306 349 354 
244 247 262 374 
245 15 16 91 
246 43 44 92 
247 267 148 392 
248 268 200 393 
249 225 322 409 
250 223 326 410 
251 85 276 284 
252 86 285 293 
253 119 267 392 
254 171 268 393 
255 87 211 224 
256 275 274 350 
257 232 294 374 
258 101 377 420 
259 336 228 337 
260 295 230 319 
261 211 90 212 
262 79 33 298 
263 80 61 303 
264 22 23 85 
265 50 51 86 
266 158 146 313 
267 88 209 210 
268 85 23 276 
269 86 51 285 
270 376 264 389 
271 375 266 388 
272 13 14 83 
273 41 42 84 
274 99 31 296 
275 100 59 297 
276 151 247 294 
277 146 131 322 
278 135 137 318 
279 187 189 319 
280 235 265 391 
281 236 263 390 
282 101 19 377 
283 85 284 386 
284 86 293 387 
285 47 48 261 
286 209 89 215 
287 13 83 272 
288 41 84 273 
289 139 150 151 
290 191 202 203 
291 101 337 408 
292 148 267 380 
293 200 268 381 
294 20 93 377 
295 198 183 326 
296 77 76 414 
297 78 70 415 
298 322 323 409 
299 326 327 410 
300 151 152 153 
301 237 364 378 
302 298 299 314 
303 303 304 315 
304 238 365 379 
305 72 81 385 
306 32 33 79 
307 60 61 80 
308 32 79 296 
309 60 80 297 
310 203 204 205 
311 95 25 283 
312 96 53 292 
313 277 278 279 
314 286 287 288 
315 224 254 313 
316 298 103 299 
317 303 104 304 
318 274 198 316 
319 99 296 343 
320 100 297 345 
321 270 132 357 
322 271 184 358 
323 283 26 324 
324 292 54 325 
325 145 131 146 
326 299 300 301 
327 304 305 306 
328 277 95 278 
329 286 96 287 
330 220 356 362 
331 222 354 363 
332 125 140 382 
333 177 192 383 
334 197 183 198 
335 34 103 298 
336 62 104 303 
337 11 12 97 
338 39 40 98 
339 24 25 95 
340 52 53 96 
341 213 67 406 
342 277 279 308 
343 286 288 309 
344 283 324 340 
345 292 325 341 
346 23 24 276 
347 51 52 285 
348 33 34 298 
349 61 62 303 
350 158 254 336 
351 254 212 352 
352 281 280 282 
353 290 289 291 
354 79 314 342 
355 80 315 344 
356 30 31 99 
357 58 59 100 
358 76 233 414 
359 12 13 272 
360 40 41 273 
361 70 234 415 
362 356 347 362 
363 354 349 363 
364 210 216 316 
365 26 27 324 
366 54 55 325 
367 31 32 296 
368 59 60 297 
369 269 94 396 
370 299 103 300 
371 304 104 305 
372 79 298 314 
373 80 303 315 
374 259 337 420 
375 308 279 372 
376 309 288 373 
377 189 191 295 
378 157 146 158 
379 189 295 319 
380 34 35 103 
381 62 63 104 
382 265 235 388 
383 263 236 389 
384 22 85 310 
385 50 86 312 
386 21 22 310 
387 49 50 312 
388 272 255 403 
389 273 257 404 
390 279 278 280 
391 288 287 289 
392 301 300 302 
393 306 305 307 
394 28 29 105 
395 56 57 106 
396 9 10 226 
397 37 38 227 
398 382 140 418 
399 383 192 419 
400 153 154 155 
401 208 198 274 
402 294 247 374 
403 90 214 248 
404 322 127 323 
405 205 207 228 
406 248 214 249 
407 326 179 327 
408 30 99 338 
409 58 100 339 
410 156 240 270 
411 206 242 271 
412 113 115 135 
413 165 167 187 
414 121 124 125 
415 173 176 177 
416 135 136 137 
417 187 188 189 
418 125 133 140 
419 177 185 192 
420 113 135 330 
421 165 187 331 
422 278 95 283 
423 287 96 292 
424 274 216 350 
425 267 117 359 
426 268 169 360 
427 300 103 332 
428 305 104 333 
429 228 336 352 
430 121 125 320 
431 173 177 321 
432 82 232 406 
433 105 29 338 
434 106 57 339 
435 17 18 408 
436 45 46 407 
437 151 150 152 
438 203 202 204 
439 35 36 332 
440 63 64 333 
441 44 45 378 
442 340 324 412 
443 341 325 413 
444 16 17 379 
445 301 355 423 
446 306 353 424 
447 140 147 236 
448 192 199 235 
449 129 142 217 
450 181 194 218 
451 215 89 262 
452 130 123 132 
453 182 175 184 
454 11 97 370 
455 39 98 371 
456 125 124 133 
457 177 176 185 
458 323 109 414 
459 217 219 220 
460 218 221 222 
461 327 161 415 
462 14 15 375 
463 42 43 376 
464 255 256 403 
465 257 258 404 
466 337 228 426 
467 108 77 109 
468 160 78 161 
469 119 117 267 
470 171 169 268 
471 394 249 405 
472 217 142 219 
473 218 194 221 
474 145 146 157 
475 137 138 139 
476 189 190 191 
477 337 101 420 
478 132 123 357 
479 184 175 358 
480 135 115 136 
481 187 167 188 
482 296 79 342 
483 297 80 344 
484 299 301 356 
485 304 306 354 
486 197 198 208 
487 282 280 340 
488 291 289 341 
489 103 35 332 
490 104 63 333 
491 257 147 258 
492 255 199 256 
493 140 133 147 
494 192 185 199 
495 133 124 134 
496 185 176 186 
497 5 76 77 
498 7 70 78 
499 256 353 403 
500 258 355 404 
501 129 130 142 
502 181 182 194 
503 280 278 340 
504 289 287 341 
505 295 203 405 
506 226 10 370 
507 227 38 371 
508 122 120 123 
509 174 172 175 
510 142 130 143 
511 194 182 195 
512 153 152 154 
513 236 147 257 
514 235 199 255 
515 87 224 225 
516 205 204 207 
517 143 281 368 
518 195 290 369 
519 131 127 322 
520 87 225 409 
521 116 118 320 
522 168 170 321 
523 88 223 410 
524 121 122 124 
525 173 174 176 
526 88 210 223 
527 232 374 406 
528 129 123 130 
529 181 175 182 
530 118 120 121 
531 170 172 173 
532 239 149 250 
533 241 201 251 
534 183 179 326 
535 135 318 422 
536 187 319 421 
537 122 123 129 
538 174 175 181 
539 215 262 317 
540 249 214 385 
541 129 217 328 
542 181 218 329 
543 81 229 230 
544 82 231 232 
545 139 144 150 
546 191 196 202 
547 126 111 127 
548 178 163 179 
549 145 311 395 
550 29 30 338 
551 57 58 339 
552 156 239 240 
553 206 241 242 
554 116 114 117 
555 168 166 169 
556 118 119 120 
557 170 171 172 
558 278 283 340 
559 287 292 341 
560 66 65 82 
561 72 71 81 
562 128 127 131 
563 180 179 183 
564 148 149 156 
565 200 201 206 
566 157 158 259 
567 115 114 116 
568 167 166 168 
569 121 120 122 
570 173 172 174 
571 208 274 275 
572 69 68 88 
573 75 74 87 
574 108 110 330 
575 160 162 331 
576 301 302 355 
577 306 307 353 
578 253 144 263 
579 252 196 265 
580 6 67 89 
581 8 73 90 
582 156 149 239 
583 206 201 241 
584 65 5 107 
585 71 7 159 
586 122 129 328 
587 174 181 329 
588 141 131 145 
589 193 183 197 
590 124 122 328 
591 176 174 329 
592 148 156 392 
593 200 206 393 
594 118 117 119 
595 170 169 171 
596 134 124 328 
597 186 176 329 
598 116 117 118 
599 168 169 170 
600 132 270 401 
601 184 271 402 
602 252 265 266 
603 253 263 264 
604 76 75 233 
605 2 28 397 
606 4 56 398 
607 27 2 397 
608 55 4 398 
609 64 1 399 
610 36 3 400 
611 1 9 399 
612 3 37 400 
613 70 69 234 
614 346 134 347 
615 348 186 349 
616 212 90 248 
617 137 136 138 
618 189 188 190 
619 113 114 115 
620 165 166 167 
621 110 112 113 
622 162 164 165 
623 118 121 320 
624 170 173 321 
625 138 136 243 
626 190 188 244 
627 128 141 148 
628 180 193 200 
629 328 217 362 
630 329 218 363 
631 148 141 149 
632 200 193 201 
633 247 153 411 
634 110 111 112 
635 162 163 164 
636 134 328 362 
637 186 329 363 
638 338 99 416 
639 339 100 417 
640 233 409 414 
641 108 109 110 
642 160 161 162 
643 234 410 415 
644 296 342 343 
645 297 344 345 
646 258 147 346 
647 256 199 348 
648 74 8 211 
649 217 220 362 
650 218 222 363 
651 113 112 114 
652 165 164 166 
653 68 6 209 
654 97 272 403 
655 98 273 404 
656 133 134 346 
657 185 186 348 
658 139 138 144 
659 191 190 196 
660 150 144 253 
661 202 196 252 
662 126 127 128 
663 178 179 180 
664 197 208 269 
665 123 120 357 
666 175 172 358 
667 311 250 395 
668 128 131 141 
669 180 183 193 
670 116 320 334 
671 168 321 335 
672 157 259 260 
673 251 201 361 
674 147 133 346 
675 199 185 348 
676 207 238 246 
677 154 237 245 
678 120 119 357 
679 172 171 358 
680 110 109 111 
681 162 161 163 
682 115 116 334 
683 167 168 335 
684 18 101 408 
685 46 102 407 
686 142 143 368 
687 194 195 369 
688 92 44 378 
689 91 16 379 
690 112 111 126 
691 164 163 178 
692 89 67 213 
693 90 73 214 
694 207 204 238 
695 136 115 334 
696 188 167 335 
697 154 152 237 
698 143 130 372 
699 195 182 373 
700 409 323 414 
701 250 310 386 
702 251 312 387 
703 230 229 319 
704 232 231 318 
705 410 327 415 
706 99 343 416 
707 100 345 417 
708 110 113 330 
709 162 165 331 
710 243 136 334 
711 244 188 335 
712 324 105 412 
713 325 106 413 
714 282 338 416 
715 291 339 417 
716 83 14 375 
717 84 42 376 
718 347 134 362 
719 349 186 363 
720 117 114 359 
721 169 166 360 
722 352 248 394 
723 324 27 397 
724 325 55 398 
725 250 149 395 
726 263 144 366 
727 265 196 367 
728 225 224 313 
729 223 210 316 
730 197 269 361 
731 330 135 422 
732 331 187 421 
733 114 112 359 
734 166 164 360 
735 10 11 370 
736 38 39 371 
737 193 197 361 
738 201 193 361 
739 105 338 412 
740 106 339 413 
741 267 359 380 
742 268 360 381 
743 350 155 351 
744 240 308 401 
745 242 309 402 
746 219 142 368 
747 221 194 369 
748 150 253 364 
749 202 252 365 
750 212 248 352 
751 89 213 262 
752 130 132 372 
753 182 184 373 
754 128 148 380 
755 180 200 381 
756 19 20 377 
757 152 150 364 
758 204 202 365 
759 112 126 359 
760 164 178 360 
761 239 250 386 
762 241 251 387 
763 343 281 416 
764 345 290 417 
765 138 243 366 
766 190 244 367 
767 156 270 392 
768 206 271 393 
769 281 343 368 
770 290 345 369 
771 320 125 382 
772 321 177 383 
773 338 282 412 
774 339 291 413 
775 263 366 390 
776 265 367 391 
777 141 145 395 
778 207 246 426 
779 334 320 382 
780 335 321 383 
781 238 204 365 
782 237 152 364 
783 310 85 386 
784 312 86 387 
785 140 236 390 
786 192 235 391 
787 144 138 366 
788 196 190 367 
789 332 36 400 
790 333 64 399 
791 262 247 411 
792 108 330 427 
793 160 331 428 
794 243 334 382 
795 244 335 383 
796 105 324 397 
797 106 325 398 
798 28 105 397 
799 56 106 398 
800 9 226 399 
801 37 227 400 
802 269 208 384 
803 270 240 401 
804 271 242 402 
805 81 230 385 
806 126 128 380 
807 178 180 381 
808 359 126 380 
809 360 178 381 
810 226 333 399 
811 227 332 400 
812 208 275 384 
813 374 213 406 
814 281 282 416 
815 290 291 417 
816 107 108 427 
817 159 160 428 
818 353 256 424 
819 355 258 423 
820 264 263 389 
821 266 265 388 
822 377 260 420 
823 149 141 395 
824 231 107 427 
825 229 159 428 
826 248 249 394 
827 256 348 424 
828 258 346 423 
829 109 77 414 
830 161 78 415 
831 251 361 396 
832 366 243 418 
833 367 244 419 
834 66 82 406 
835 228 207 426 
836 346 347 423 
837 348 349 424 
838 282 340 412 
839 291 341 413 
840 330 422 427 
841 331 421 428 
842 361 269 396 
843 319 229 421 
844 318 231 422 
845 317 262 411 
846 260 259 420 
847 390 366 418 
848 391 367 419 
849 421 229 428 
850 422 231 427 
851 140 390 418 
852 192 391 419 
853 243 382 418 
854 244 383 419 
855 261 384 425 
856 384 275 425 
$EndElements
